<?xml version="1.0" encoding="utf-8"?>
<!-- Generator: Adobe Illustrator 27.5.0, SVG Export Plug-In . SVG Version: 6.00 Build 0)  -->
<svg version="1.1" xmlns="http://www.w3.org/2000/svg" xmlns:xlink="http://www.w3.org/1999/xlink" x="0px" y="0px"
	 viewBox="0 0 1122 1122" style="enable-background:new 0 0 1122 1122;" xml:space="preserve">
<g id="Bg">
	<rect style="fill:#FFFFFF;" width="1122" height="1122"/>
</g>
<g id="Object">
	<g>
		<path style="fill:#616E7D;" d="M545.779,709.669c2.76,2.264,5.483,4.594,8.134,7.003c6.803,6.182,13.036,12.949,18.992,19.966
			h65.362c21.388,0,38.721-17.34,38.721-38.724V528.664l39.895,39.889l22.623-22.628c16.135-16.129,16.135-42.28,0-58.409
			L563.62,311.625l0.061-0.079l-22.647-22.626c-8.073-8.088-18.658-12.101-29.268-12.101c-10.591,0-21.182,4.013-29.267,12.101
			l-22.623,22.626l0.061,0.079L284.052,487.516c-16.135,16.129-16.135,42.28,0,58.409l22.623,22.628l39.889-39.889V669.81
			c19.718-5.931,40.531-9.269,62.179-9.269c13.684,0,27.071,1.292,40.059,3.731V558.231h125.955v151.437H545.779z"/>
		<path style="fill:#FFFFFF;" d="M448.801,664.272c36.361,6.827,69.514,22.783,96.978,45.396h28.977V558.231H448.801V664.272z"/>
		<path style="fill:#AAD4C8;" d="M666.844,779.358c-31.489,0-60.351-10.981-83.155-29.249c-3.377-4.675-7.057-9.081-10.785-13.472
			c-5.956-7.017-12.189-13.784-18.992-19.966c-2.651-2.409-5.374-4.738-8.134-7.003c-27.464-22.613-60.617-38.569-96.978-45.396
			c-12.988-2.439-26.375-3.731-40.059-3.731c-21.648,0-42.461,3.338-62.179,9.269c-28.16,8.482-53.966,22.408-75.983,40.784
			l-0.775,1.637v130.809l0.629,1.51l1.514,0.629h578.116l1.513-0.629l0.617-1.51V605.752l-0.617-1.495l-1.513-0.63h-0.896
			c-0.182-31.25-4.067-55.579-12.491-72.431c-8.558-17.261-22.411-26.671-41.009-26.593c-1.525,0-3.087,0.048-4.672,0.172
			c-6.912,0.535-11.983,2.488-15.312,5.979c-3.341,3.495-4.612,8.246-4.599,13.596c0.018,9.568,3.843,21.636,8.606,35.625
			c3.825,11.157,8.231,23.524,11.959,36.491c-9.49-14.492-21.049-20.613-31.265-20.628c-6.228,0-11.874,2.312-15.917,6.276
			c-4.079,3.967-6.536,9.584-6.536,15.942c0,8.388,4.2,17.968,14.004,27.192c3.837,3.586,9.901,12.382,14.84,24.026
			c4.957,11.674,8.872,26.278,8.872,41.747c-0.012,17.86-5.174,36.836-20.008,54.191
			C732.061,766.377,701.015,779.358,666.844,779.358z"/>
	</g>
</g>
</svg>
